<?xml version="1.0" ?><!DOCTYPE svg  PUBLIC '-//W3C//DTD SVG 1.1//EN'  'http://www.w3.org/Graphics/SVG/1.1/DTD/svg11.dtd'><svg enable-background="new 0 0 512 512" height="30px" id="Layer_1" version="1.1" viewBox="0 0 512 512" width="30px" xml:space="preserve" xmlns="http://www.w3.org/2000/svg" xmlns:xlink="http://www.w3.org/1999/xlink"><path d="M496.487,15.3c-6.375-6.365-14.737-9.552-23.089-9.552c-8.362,0-16.713,3.187-23.078,9.552l-96.042,96.032  V93.141H6.108v413.446H419.56V158.423h-20.018l96.945-96.957C509.249,48.737,509.249,28.051,496.487,15.3z M397.8,484.827H27.869  V114.902h322.85L180.193,285.417v47.091h45.285L397.8,160.165V484.827z M481.101,46.081L216.468,310.747h-14.514v-16.32  L465.717,30.675c2.763-2.763,5.993-3.166,7.682-3.166c1.69,0,4.931,0.413,7.703,3.187c2.784,2.773,3.199,6.015,3.199,7.703  C484.3,40.078,483.886,43.297,481.101,46.081z" fill="#ffffff"/></svg>
